<svg xmlns="http://www.w3.org/2000/svg" viewBox="0 0 32 32" width="100" height="100" fill="none">

            <path
                d="M 14.833536,31 C 14.832186,29.72825 14.845936,28.45584 14.780346,27.18523 C 14.640926,24.23046 14.271927,21.28979 13.761657,18.3776 C 13.321987,15.91911 12.787787,13.46983 11.990517,11.10075 C 11.530267,9.76243 10.992887,8.44912 10.357087,7.1849 C 9.7764065,6.054 9.1143465,4.94296 8.2160065,4.03494 C 7.6282465,3.4465 6.9007265,2.94535 6.0649765,2.81624 C 5.3237266,2.70142 4.5304666,2.87571 3.9356966,3.34384 C 3.2136565,3.90519 2.7654365,4.75625 2.5438365,5.63289 C 2.3053765,6.59995 2.2959765,7.61358 2.4292165,8.5973 C 2.6464465,10.15587 3.2689665,11.63258 4.0815466,12.96908 C 3.2924465,12.96908 2.5033465,12.96908 1.7142465,12.96908 C 0.89724651,11.48481 0.25799651,9.87299 0.060256514,8.17899 C -0.071203486,7.00695 0.0037165138,5.79903 0.37149651,4.67421 C 0.76442651,3.47499 1.5195865,2.3932 2.5232565,1.6304 C 3.2809665,1.05478 4.2059366,0.71268 5.1519466,0.63781 C 6.1938265,0.54496 7.2610465,0.74619 8.1909265,1.22976 C 9.3998665,1.85021 10.363677,2.85944 11.145277,3.95766 C 12.190347,5.44147 12.965067,7.10101 13.584287,8.80382 C 14.630766,11.7176 15.212626,14.77861 15.575146,17.84795 C 15.664836,18.61648 15.739556,19.38675 15.801446,20.15803 C 15.933606,20.15803 16.065776,20.15803 16.197936,20.15803 C 16.431516,16.78332 16.919066,13.40761 17.920236,10.17029 C 18.536746,8.19886 19.343216,6.2733 20.460106,4.53209 C 21.232966,3.34246 22.178396,2.22691 23.393236,1.47473 C 24.303946,0.906 25.375406,0.59315 26.449836,0.61744 C 27.406076,0.6265 28.366336,0.88414 29.173386,1.40571 C 29.918276,1.88417 30.536726,2.54825 31.007306,3.29688 C 31.640376,4.30981 31.942786,5.5036 31.990526,6.69149 C 32.064366,8.24898 31.700306,9.79841 31.118136,11.23409 C 30.878056,11.82774 30.600746,12.40584 30.296796,12.96908 C 29.503806,12.96908 28.710826,12.96908 27.917836,12.96908 C 28.695646,11.56825 29.330906,10.06044 29.565756,8.46485 C 29.705436,7.49053 29.689976,6.48739 29.469736,5.52616 C 29.266586,4.67296 28.870956,3.83354 28.201276,3.25079 C 27.718386,2.82263 27.078466,2.59021 26.436216,2.58446 C 25.680306,2.56059 24.950086,2.87303 24.358336,3.32879 C 23.494556,3.99307 22.844986,4.89198 22.282956,5.81679 C 21.451756,7.21072 20.811436,8.71018 20.250396,10.23124 C 19.437586,12.49802 18.893326,14.85166 18.440286,17.21432 C 17.839016,20.40325 17.413216,23.6291 17.246136,26.8715 C 17.183796,28.01857 17.173966,29.16745 17.177516,30.31595 C 17.177516,30.54397 17.177516,30.77198 17.177516,31 C 16.396186,31 15.614856,31 14.833536,31 z"
                style="fill: #e5e7eb"
            />
        
</svg>
