<svg xmlns="http://www.w3.org/2000/svg" viewBox="0 0 32 32" width="100" height="100" fill="none">

            <path
                d="M 0,25.629482 L 0,22.908101 C 5.2479509,25.304914 10.333464,26.490837 15.231551,26.490837 C 18.442797,26.490837 21.054277,26.078884 23.065992,25.242497 C 21.791489,24.59336 20.829365,23.769455 20.192114,22.783267 C 19.554863,21.797078 19.22999,20.636122 19.22999,19.300398 C 19.22999,17.552722 19.867241,16.054714 21.129248,14.793891 C 22.37876,13.545551 23.903165,12.921381 25.652481,12.921381 C 27.401798,12.921381 28.888718,13.545551 30.13823,14.781407 C 31.375246,16.029747 32.000002,17.515272 32.000002,19.275431 C 32.000002,22.05923 30.300666,24.381142 26.889498,26.228685 C 23.478331,28.076228 19.205,29 14.069505,29 C 9.6212429,29 4.9355729,27.888977 0,25.629482 z M 20.916831,19.312882 C 20.916831,20.586188 21.37915,21.684728 22.316284,22.608499 C 23.240923,23.532271 24.365484,23.994157 25.652481,23.994157 C 26.951974,23.994157 28.051545,23.532271 28.963688,22.645949 C 29.863337,21.747145 30.313161,20.648605 30.313161,19.350332 C 30.313161,18.027091 29.863337,16.903585 28.951193,15.979814 C 28.039049,15.056042 26.939479,14.594156 25.639986,14.594156 C 24.327999,14.594156 23.215933,15.056042 22.291294,15.979814 C 21.37915,16.891102 20.916831,18.002125 20.916831,19.312882 z M 32.000002,7.3163341 L 32.000002,10.037715 C 26.739557,7.6409025 21.666538,6.4424962 16.755956,6.4424962 C 13.557205,6.4424962 10.93323,6.8544483 8.9090209,7.7033195 C 10.208513,8.3524563 11.170637,9.1763607 11.795393,10.162549 C 12.44514,11.148738 12.757518,12.309694 12.757518,13.645418 C 12.757518,15.393094 12.132762,16.891102 10.870755,18.151925 C 9.6087469,19.400265 8.0968379,20.024435 6.3350259,20.024435 C 4.5857089,20.024435 3.0987899,19.412749 1.8617729,18.164409 C 0.624756,16.928552 0,15.430544 0,13.682868 C 0,10.886586 1.6993364,8.5521907 5.1105039,6.7046475 C 8.5091769,4.8571044 12.795003,3.9333327 17.930497,3.9333327 C 22.37876,3.9333327 27.06443,5.0568388 32.000002,7.3163341 z M 11.083172,13.632935 C 11.083172,12.347144 10.620852,11.248605 9.6837179,10.324834 C 8.7465839,9.4135453 7.6220229,8.9516595 6.3225309,8.9516595 C 5.0230379,8.9516595 3.9234679,9.4010619 3.0238189,10.299867 C 2.1241709,11.198672 1.6743461,12.297211 1.6743461,13.595484 C 1.6743461,14.918725 2.1366659,16.042231 3.0488089,16.966002 C 3.9484579,17.889774 5.0605239,18.35166 6.3600159,18.35166 C 7.6595089,18.35166 8.7840689,17.889774 9.6962129,16.966002 C 10.620852,16.042231 11.083172,14.931208 11.083172,13.632935 z "
                style="fill: #e5e7eb"
            />
        
</svg>
