<svg xmlns="http://www.w3.org/2000/svg" viewBox="0 0 32 32" width="100" height="100" fill="none">

            <path
                d="M 28.021371,29.480821 C 27.378339,30.069948 26.687992,30.612392 25.933602,31.052359 C 25.304394,31.418701 24.627429,31.712091 23.915022,31.870472 C 23.487807,31.966 23.048977,32.010262 22.611279,31.997998 C 21.996085,31.984157 21.380345,31.877454 20.804911,31.656426 C 20.273459,31.45379 19.78042,31.153903 19.350455,30.782028 C 19.01594,30.493769 18.718002,30.162757 18.467762,29.798846 C 18.158781,29.349633 17.929782,28.845739 17.794725,28.317479 C 17.63594,27.700871 17.601355,27.056237 17.658896,26.423402 C 17.716485,25.783872 17.848013,25.153306 18.008449,24.532354 C 18.256905,23.580611 18.577873,22.64935 18.928491,21.730873 C 19.444958,20.383716 20.030174,19.063988 20.644971,17.759144 C 21.137205,16.710101 21.629437,15.66106 22.121669,14.612017 C 22.563227,13.665208 22.965743,12.69845 23.286052,11.703432 C 23.514099,10.99071 23.701255,10.262504 23.801181,9.5200286 C 23.852196,9.1405746 23.877587,8.7573916 23.869311,8.3744766 C 23.856899,7.5869314 23.750549,6.7965618 23.505301,6.0463635 C 23.301058,5.418605 22.996559,4.8224674 22.597401,4.2961421 C 22.371107,3.9971881 22.11588,3.7203532 21.839132,3.4675333 C 21.37938,3.0487532 20.84861,2.7082424 20.275826,2.4660174 C 19.623201,2.188429 18.921351,2.037397 18.21558,1.9834973 C 17.708952,1.9455882 17.198691,1.9504582 16.693384,2.0043054 C 16.018445,2.0765608 15.350828,2.2447766 14.734171,2.5313083 C 14.177105,2.788857 13.665043,3.1423975 13.224318,3.5693479 C 12.795535,3.9951333 12.435457,4.4912418 12.172719,5.0358773 C 11.890094,5.6181467 11.719642,6.2513081 11.643947,6.8931029 C 11.562017,7.5844323 11.58282,8.2857396 11.680533,8.9743036 C 11.806081,9.8617606 12.048975,10.729152 12.354033,11.570691 C 12.598798,12.244837 12.885499,12.903117 13.198398,13.548268 C 13.409964,13.987682 13.621911,14.426915 13.833171,14.866475 C 14.180488,15.596 14.507863,16.336116 14.78174,17.096664 C 14.954639,17.580903 15.107741,18.073898 15.204664,18.579468 C 15.260615,18.874404 15.295905,19.174492 15.288501,19.475096 C 15.279531,20.120064 15.164058,20.764575 14.93632,21.368563 C 14.702562,21.992938 14.351396,22.570377 13.922614,23.079729 C 13.596168,23.466768 13.229445,23.820305 12.82801,24.129006 C 12.300494,24.534653 11.707021,24.856277 11.07435,25.064041 C 10.428053,25.277909 9.7449375,25.372193 9.0650399,25.363767 C 8.3759593,25.356869 7.6855018,25.247591 7.0355819,25.015557 C 6.4222437,24.798138 5.8489687,24.471706 5.3429118,24.063133 C 5.0439695,23.822328 4.7677491,23.553898 4.5123573,23.2675 C 4.0755531,22.775648 3.7141742,22.214944 3.4616518,21.606844 C 3.2037777,20.98995 3.0594378,20.328259 3.0157928,19.661806 C 2.9693018,18.955433 3.0231838,18.239397 3.2077104,17.55474 C 3.3727225,16.937233 3.6447373,16.349194 4.0041399,15.820901 C 4.302743,15.379906 4.6607208,14.981084 5.0526126,14.621273 C 5.5421399,14.173467 6.1013629,13.798734 6.7121943,13.537673 C 7.3020887,13.28391 7.9368221,13.138761 8.5771625,13.097749 C 8.8971584,13.076717 9.2189837,13.079473 9.5380923,13.112376 C 10.018325,13.160864 10.491415,13.26752 10.951877,13.410851 C 10.476678,12.493262 10.056951,11.544055 9.7458166,10.557658 C 9.491642,9.7488286 9.3109619,8.9128546 9.2622416,8.0649726 C 9.236305,7.6031308 9.250617,7.1391297 9.3012659,6.6794107 C 9.3862507,5.9132685 9.5868802,5.1582038 9.9127537,4.4588487 C 10.233547,3.7664896 10.675171,3.13252 11.199748,2.5793188 C 11.851501,1.8927078 12.619604,1.3144746 13.467975,0.89303672 C 14.237546,0.50910782 15.069567,0.25617142 15.918391,0.12308692 C 16.744459,-0.0072372838 17.585452,-0.026987784 18.418977,0.029386616 C 19.369295,0.095367916 20.315484,0.27958712 21.206358,0.62137612 C 21.971279,0.91357902 22.691643,1.3238075 23.328431,1.8390856 C 23.621062,2.0753667 23.897291,2.3322168 24.150513,2.6104512 C 24.685356,3.1933654 25.127487,3.8612674 25.453196,4.582345 C 25.817841,5.3857805 26.038347,6.2503262 26.140719,7.1254282 C 26.201458,7.6372171 26.220849,8.1532276 26.21245,8.6683416 C 26.201725,9.4069696 26.147023,10.146861 26.011051,10.873651 C 25.957889,11.158142 25.890542,11.439972 25.808556,11.717538 C 25.688186,12.137917 25.536968,12.548698 25.379212,12.956261 C 25.077963,13.727847 24.745765,14.486908 24.405908,15.242131 C 24.24861,15.591873 24.087608,15.939926 23.926959,16.288134 C 23.573932,17.058874 23.220904,17.829615 22.867876,18.600355 C 22.278812,19.880059 21.706245,21.1679 21.18207,22.475731 C 20.875693,23.244252 20.583796,24.019396 20.339649,24.810207 C 20.205361,25.250627 20.083389,25.696136 20.007865,26.150824 C 19.970186,26.380443 19.946525,26.613222 19.954231,26.846145 C 19.963877,27.275026 20.037817,27.70576 20.202523,28.103263 C 20.335584,28.426806 20.529217,28.72493 20.769168,28.979363 C 21.007131,29.244348 21.296489,29.464569 21.620578,29.613384 C 21.966619,29.773813 22.34724,29.851734 22.72743,29.863738 C 23.091026,29.877655 23.45506,29.822503 23.803577,29.720343 C 24.310533,29.57177 24.786303,29.331731 25.232847,29.052044 C 25.734648,28.736537 26.201867,28.368779 26.645551,27.976448 C 27.104158,28.477906 27.562765,28.979363 28.021371,29.480821 z M 4.7490275,19.206769 C 4.7484142,19.755052 4.8336544,20.305877 5.0245121,20.82091 C 5.2021841,21.304325 5.4725724,21.752138 5.8100493,22.140644 C 6.0546806,22.423477 6.3347532,22.675787 6.6418281,22.889188 C 7.0400277,23.165941 7.4887036,23.369813 7.9595301,23.486079 C 8.4230474,23.601151 8.9049971,23.635487 9.380962,23.603564 C 9.8671569,23.570308 10.348812,23.454564 10.792322,23.25135 C 11.259309,23.039018 11.680353,22.732901 12.043376,22.371731 C 12.415748,22.003364 12.729563,21.573168 12.94916,21.096748 C 13.166136,20.629455 13.290154,20.121218 13.328065,19.607988 C 13.35911,19.180401 13.339444,18.748377 13.261083,18.326644 C 13.169533,17.832439 12.990642,17.3541 12.730414,16.923863 C 12.546705,16.619226 12.324834,16.33797 12.0748,16.085124 C 11.707501,15.720765 11.280615,15.413503 10.808107,15.20074 C 10.353863,14.994615 9.8610077,14.878325 9.3638937,14.844949 C 8.8190118,14.808066 8.2651464,14.858534 7.7429679,15.022634 C 7.2801421,15.16668 6.8467028,15.400009 6.4650737,15.698213 C 6.0586868,16.015329 5.7038162,16.399174 5.4235185,16.832025 C 5.1531489,17.249233 4.9592982,17.715631 4.8539629,18.201511 C 4.7817953,18.531356 4.7489505,18.869288 4.7490275,19.206769 z "
                style="fill: #e5e7eb"
            />
        
</svg>
