<svg xmlns="http://www.w3.org/2000/svg" viewBox="0 0 32 32" width="100" height="100" fill="none">

            <path
                d="M -5.59625e-06,29.190709 C -5.59625e-06,28.203722 -5.59625e-06,27.216735 -5.59625e-06,26.229735 C 10.666667,26.229735 21.333327,26.229735 32,26.229735 C 32,27.216735 32,28.203722 32,29.190709 C 21.333327,29.190709 10.666667,29.190709 -5.59625e-06,29.190709 z M 12.64875,17.50961 C 12.64875,18.432446 12.64875,19.355283 12.64875,20.278133 C 8.4325023,20.278133 4.2162418,20.278133 -5.59625e-06,20.278133 C -5.59625e-06,19.286176 -5.59625e-06,18.294231 -5.59625e-06,17.302286 C 2.955817,17.302286 5.9116396,17.302286 8.8674623,17.302286 C 7.8330019,16.258319 7.0121247,14.970426 6.6625171,13.533608 C 6.3651064,12.335772 6.3993829,11.073538 6.6393837,9.8690395 C 6.9451095,8.3557616 7.6923899,6.9484293 8.7179879,5.7989203 C 9.8724683,4.4922762 11.345447,3.4393957 13.016655,2.9073927 C 14.519909,2.4251613 16.140081,2.3377845 17.695271,2.5894661 C 19.266439,2.8452726 20.756113,3.5367528 21.986132,4.5424772 C 23.286998,5.6022412 24.385684,6.9515132 24.986201,8.5288887 C 25.463062,9.7726579 25.640127,11.126394 25.533557,12.452166 C 25.416678,13.820344 24.878927,15.135902 24.061452,16.234858 C 23.783603,16.612511 23.476118,16.968056 23.14735,17.302313 C 26.098233,17.3023 29.049116,17.3023 32,17.302286 C 32,18.294231 32,19.286176 32,20.278133 C 27.783739,20.278133 23.567492,20.278133 19.351244,20.278133 C 19.351244,19.355283 19.351244,18.432446 19.351244,17.50961 C 20.476479,16.787199 21.469846,15.803413 22.02815,14.575337 C 22.584603,13.36294 22.70689,11.97428 22.469274,10.668976 C 22.239752,9.4176076 21.574618,8.2713776 20.671451,7.3832703 C 19.751563,6.452405 18.56162,5.771868 17.265941,5.5409669 C 15.728241,5.264406 14.075383,5.4864198 12.72537,6.295361 C 11.823533,6.8356007 11.049874,7.584855 10.458545,8.4515703 C 9.7533997,9.4874179 9.4077411,10.746789 9.4313959,11.995347 C 9.4366742,13.19887 9.7691304,14.409744 10.447024,15.410979 C 11.014215,16.262457 11.792762,16.956553 12.64875,17.50961 z "
                style="fill: #e5e7eb"
            />
        
</svg>
