<svg xmlns="http://www.w3.org/2000/svg" viewBox="0 0 32 32" width="100" height="100" fill="none">

            <path
                d="M 2.071775,25.109392 C 2.0717542,19.243392 2.0718166,13.377392 2.0717432,7.5113921 C 2.0692475,6.3432265 1.9583997,5.1706922 1.6771621,4.0352626 C 1.4373196,3.0662575 1.068594,2.1251435 0.54538048,1.2736971 C 0.37957208,1.0035062 0.19866458,0.742594 0.0032393764,0.4930651 C 0.88450898,0.4930651 1.7657786,0.4930651 2.6470483,0.4930651 C 3.2340533,1.3894931 3.6983323,2.3651901 4.0356273,3.3823424 C 4.2479613,4.0210373 4.4114813,4.675666 4.5319863,5.337833 C 5.0485193,4.0601978 5.6846493,2.8268389 6.4767173,1.697965 C 6.7699393,1.2801069 7.0843633,0.8770688 7.4205923,0.4930651 C 8.2121033,0.3336171 9.0036133,0.174169 9.7951243,0.014721003 C 10.3218,0.6290584 10.72797,1.3400005 11.037714,2.0861585 C 11.401358,2.9629253 11.638039,3.8880012 11.798125,4.822395 C 11.841972,5.0791763 11.879887,5.3369658 11.912619,5.5954029 C 12.340821,4.3602398 12.95054,3.1929672 13.674543,2.1069002 C 14.04654,1.5487376 14.448917,1.0111376 14.874664,0.4930651 C 15.682495,0.3336171 16.490325,0.174169 17.298156,0.014721003 C 17.881107,0.8028629 18.346472,1.6783357 18.67093,2.6040274 C 19.02754,3.6163655 19.216238,4.6841156 19.266369,5.7552888 C 19.28004,6.0221521 19.281444,6.2893773 19.281012,6.5565239 C 19.281029,11.627081 19.280979,16.697639 19.281038,21.768197 C 19.282377,22.485748 19.292699,23.203639 19.334033,23.920125 C 19.354297,24.249633 19.378831,24.579428 19.428826,24.905943 C 19.444491,25.012055 19.472278,25.115914 19.500947,25.21912 C 19.599884,25.566926 19.757615,25.898418 19.97052,26.190761 C 20.053381,26.304002 20.142069,26.413391 20.240427,26.513532 C 20.537731,26.813738 20.906791,27.035199 21.297533,27.19065 C 21.783727,27.383997 22.302121,27.483682 22.821246,27.534262 C 23.146022,27.566009 23.472475,27.576008 23.798672,27.574704 C 24.271561,27.574704 24.744452,27.574704 25.217342,27.574704 C 25.217342,26.752933 25.217342,25.931163 25.217342,25.109392 C 26.514767,26.282766 27.812192,27.45614 29.109617,28.629514 C 27.812192,29.757916 26.514767,30.886317 25.217342,32.014719 C 25.217342,31.217479 25.217342,30.420239 25.217342,29.622998 C 24.449839,29.622931 23.682334,29.623134 22.91483,29.622895 C 22.175247,29.619282 21.431889,29.55135 20.714554,29.364728 C 20.124794,29.211083 19.552432,28.972093 19.051907,28.620676 C 18.687551,28.366257 18.365543,28.051736 18.100989,27.694384 C 17.725318,27.189466 17.46015,26.60945 17.272714,26.010348 C 17.043826,25.276266 16.925428,24.5118 16.866185,23.746364 C 16.831211,23.295414 16.819479,22.843 16.820801,22.390785 C 16.82079,17.473503 16.820823,12.556221 16.820785,7.6389382 C 16.818996,6.7622192 16.777593,5.8836592 16.650977,5.0154523 C 16.55947,4.3983319 16.425444,3.7844127 16.203943,3.2001031 C 16.081996,2.8802208 15.932632,2.5696209 15.743694,2.2837894 C 14.815315,3.355495 14.038589,4.5563118 13.420896,5.8326469 C 12.741239,7.2348478 12.250224,8.724663 11.912619,10.244988 C 11.912619,15.19979 11.912619,20.15459 11.912619,25.109392 C 11.092549,25.109392 10.272478,25.109392 9.4524083,25.109392 C 9.4523973,19.574319 9.4524303,14.039246 9.4523923,8.5041733 C 9.4506143,7.5044082 9.4130143,6.5032118 9.2956693,5.5098296 C 9.2147523,4.838227 9.0986043,4.1685685 8.9037883,3.5199816 C 8.7734323,3.0905083 8.6080373,2.668637 8.3753013,2.2837894 C 7.4335443,3.344379 6.6440403,4.5369291 6.0064803,5.8036936 C 5.3815483,7.0441406 4.8987053,8.353891 4.5319863,9.6930523 C 4.5319863,14.831833 4.5319863,19.970612 4.5319863,25.109392 C 3.7119153,25.109392 2.8918454,25.109392 2.071775,25.109392 z"
                style="fill: #e5e7eb"
            />
        
</svg>
