<svg xmlns="http://www.w3.org/2000/svg" viewBox="0 0 32 32" width="100" height="100" fill="none">

            <path
                d="M 7.1632855,9.7488363 C 7.1632855,14.949869 7.1632855,20.150903 7.1632855,25.351936 C 6.3310545,25.351936 5.4988235,25.351936 4.6665925,25.351936 C 4.6665925,19.328164 4.6665925,13.304392 4.6665925,7.2806198 C 4.6673425,6.1058266 4.5137825,4.9289287 4.1857345,3.799882 C 3.8718795,2.7139807 3.3968965,1.6757606 2.7894149,0.72249545 C 2.7348007,0.6344657 2.6706257,0.54265919 2.6191293,0.4589147 C 3.4962185,0.4589147 4.3733065,0.4589147 5.2503965,0.4589147 C 5.7981965,1.2099683 6.2139745,2.0509593 6.5275915,2.9240073 C 6.8141675,3.7220848 7.0177145,4.5482143 7.1632855,5.3829455 C 7.6071445,4.2959613 8.1233675,3.2355062 8.7511365,2.2418405 C 9.1493965,1.6124601 9.5932775,1.0104583 10.094727,0.4589147 C 10.910396,0.30594355 11.726065,0.15297116 12.541734,4.4408921e-15 C 13.115428,0.73762355 13.556858,1.5720893 13.886129,2.4446709 C 14.271595,3.4660352 14.50916,4.5382745 14.651512,5.6189492 C 14.656383,5.6560295 14.661141,5.6931234 14.665786,5.7302323 C 15.038893,4.5548649 15.590571,3.4404191 16.258122,2.4047726 C 16.696636,1.7241277 17.185004,1.0761166 17.709019,0.4589147 C 18.512267,0.30594355 19.315514,0.15297116 20.118762,4.4408921e-15 C 20.726559,0.83945665 21.222876,1.7617612 21.565245,2.7404154 C 21.898164,3.6872035 22.085056,4.6836339 22.131157,5.6856096 C 22.143608,5.927036 22.143696,6.1687873 22.143444,6.4104542 C 22.143444,7.9242823 22.143444,9.4381092 22.143444,10.951937 C 22.481349,9.9980253 22.858992,9.0566779 23.309659,8.149865 C 23.59634,7.575341 23.912326,7.0139779 24.279917,6.4868214 C 24.967232,6.2346254 25.654548,5.9824282 26.341863,5.7302323 C 27.146441,6.9706762 27.806757,8.3080988 28.262452,9.7154475 C 28.679021,10.997128 28.923017,12.334625 28.983879,13.680798 C 29.049996,15.15186 28.91377,16.633976 28.556254,18.063401 C 28.159645,19.654797 27.491278,21.17566 26.608746,22.557649 C 25.796595,23.831672 24.81194,24.990532 23.729053,26.042621 C 23.376215,26.385438 23.012678,26.717228 22.640298,27.038758 C 22.730906,27.703229 22.946811,28.34528 23.225781,28.953354 C 23.57309,29.707561 24.016691,30.413998 24.503619,31.085486 C 24.730219,31.397407 24.967059,31.701848 25.211519,31.999998 C 24.234372,31.999998 23.257226,31.999998 22.280079,31.999998 C 21.815716,31.413218 21.432368,30.766317 21.100345,30.097071 C 20.833746,29.558455 20.600756,29.003673 20.392032,28.440308 C 19.396422,29.004638 18.323391,29.423829 17.224792,29.740123 C 16.384971,29.981608 15.52861,30.163385 14.665786,30.300773 C 14.665786,29.589662 14.665786,28.878551 14.665786,28.16744 C 15.812502,27.933881 16.946601,27.625426 18.036569,27.197231 C 18.681483,26.943359 19.310462,26.646783 19.907599,26.294572 C 19.730737,25.19961 19.643232,24.09029 19.646751,22.981174 C 19.64674,17.948877 19.646772,12.916578 19.646735,7.8842811 C 19.644951,6.9502024 19.597026,6.014128 19.455677,5.0899966 C 19.348522,4.3982571 19.188956,3.711247 18.930924,3.0590957 C 18.830076,2.8050951 18.713798,2.5569735 18.578514,2.3193798 C 17.738977,3.2224569 17.047959,4.2558348 16.479706,5.3475941 C 15.824429,6.6074874 15.327647,7.9447797 14.937363,9.3084187 C 14.840499,9.6484832 14.749049,9.9902943 14.665786,10.33384 C 14.665786,15.339872 14.665786,20.345904 14.665786,25.351936 C 13.829415,25.351936 12.993043,25.351936 12.156672,25.351936 C 12.156661,19.808104 12.156694,14.264272 12.156655,8.7204398 C 12.154866,7.6959636 12.116065,6.6701243 11.997523,5.6519811 C 11.916161,4.9665263 11.799958,4.2830398 11.606611,3.6195136 C 11.473643,3.1684898 11.305038,2.7244687 11.063592,2.3193798 C 10.101404,3.4380699 9.2921805,4.6842639 8.6317075,6.0022 C 8.0292045,7.2030433 7.5476115,8.4623722 7.1632855,9.7488363 z M 22.143444,24.706975 C 23.076211,23.760472 23.909859,22.712614 24.587618,21.568838 C 24.914771,21.016653 25.206851,20.443429 25.456189,19.852048 C 25.929489,18.717594 26.244817,17.518096 26.395153,16.298476 C 26.491492,15.516971 26.523603,14.727501 26.490902,13.940775 C 26.440996,12.756159 26.231227,11.578802 25.872793,10.44857 C 25.686086,9.8583883 25.459804,9.2808441 25.199098,8.7193794 C 24.504232,9.573396 23.933126,10.522099 23.448991,11.508914 C 22.926289,12.576245 22.503277,13.689957 22.143444,14.821704 C 22.143444,18.116795 22.143444,21.411884 22.143444,24.706975 z "
                style="fill: #e5e7eb"
            />
        
</svg>
