<svg xmlns="http://www.w3.org/2000/svg" viewBox="0 0 32 32" width="100" height="100" fill="none">

            <path
                d="M 2e-06,24.701657 L 9.67711,18.322684 L 11.797592,23.264142 L 19.289961,18.322684 L 21.38474,23.264142 L 28.88996,18.322684 L 31.987149,25.600104 L 29.98233,26.485716 L 27.913253,21.544258 L 20.38233,26.485716 L 18.287551,21.544258 L 10.820885,26.485716 L 8.713254,21.544258 L 1.182331,26.485716 L 2e-06,24.701657 z M 0.012853,11.391808 L 9.689961,5 L 11.810443,9.941458 L 19.315664,5 L 21.410443,9.941458 L 28.902812,5 L 32,12.27742 L 29.995181,13.163032 L 27.926105,8.221574 L 20.38233,13.163032 L 18.287551,8.221574 L 10.820885,13.163032 L 8.738957,8.221574 L 1.208034,13.163032 L 0.012853,11.391808 z "
                style="fill: currentColor"
            />
        
</svg>
