<svg xmlns="http://www.w3.org/2000/svg" viewBox="0 0 32 32" width="100" height="100" fill="none">

            <path
                d="M 6.1093559,18.904774 C 6.1092392,18.58955 6.1096042,18.274325 6.1091473,17.959103 C 6.1036389,17.146234 6.0364587,16.335065 5.9463968,15.527611 C 5.8020193,14.254642 5.5960943,12.989465 5.3665313,11.729338 C 5.2258604,10.956927 5.07044,10.18722 4.903557,9.4200547 C 4.7218027,8.5931052 4.5262389,7.7684907 4.2853336,6.9565247 C 4.1532036,6.5169554 4.0099139,6.07953 3.8251334,5.6588856 C 3.6589234,5.2836151 3.4472168,4.9269529 3.1843499,4.6110888 C 2.9009209,4.2700929 2.5514528,3.9820011 2.1546851,3.7823641 C 1.7272846,3.5652261 1.2519847,3.4525717 0.77498478,3.4220486 C 0.58701677,3.4089706 0.39859675,3.4129728 0.2103419,3.412295 C 0.14020391,3.412295 0.070064683,3.412295 -7.330277e-05,3.412295 C -7.330277e-05,2.7295335 -7.330277e-05,2.046772 -7.330277e-05,1.3640106 C 0.62763454,1.3640317 1.2553424,1.3639696 1.8830502,1.3640416 C 2.449444,1.3658515 3.021099,1.4391156 3.555011,1.6343295 C 3.9836694,1.7901071 4.3832869,2.029158 4.714788,2.3431774 C 5.0692554,2.6764805 5.3435911,3.0884861 5.5442349,3.5301632 C 5.8471608,4.1845479 6.0863474,4.866423 6.2995764,5.5546205 C 6.6316214,6.635057 6.8960057,7.7350664 7.1318322,8.8400886 C 7.3277437,9.7621902 7.5015359,10.688883 7.6615483,11.617847 C 8.0817839,9.7400191 8.6521723,7.8910812 9.4365051,6.1319797 C 10.122665,4.5928132 10.976737,3.1238233 12.023372,1.8008736 C 12.142442,1.6541792 12.25869,1.5004933 12.385607,1.3629728 C 13.480691,1.1522838 14.575777,0.94159349 15.670861,0.73090447 C 16.010492,1.5015659 16.274882,2.3031589 16.504727,3.1126397 C 16.847123,4.3273927 17.109021,5.5633971 17.333302,6.8049082 C 17.465685,7.5392145 17.582566,8.2762306 17.69054,9.0144919 C 17.841011,10.010554 17.99148,11.006615 18.141951,12.002676 C 18.236226,12.681982 18.330468,13.361349 18.413051,14.042195 C 18.448669,14.340624 18.479069,14.639658 18.51734,14.937774 C 18.618934,15.745708 18.741967,16.551795 18.916987,17.347381 C 18.996234,17.704522 19.086141,18.059613 19.197442,18.40822 C 19.654564,17.534014 20.203071,16.701275 20.880706,15.981353 C 21.445377,15.380771 22.104318,14.863507 22.842316,14.492586 C 23.518434,14.150573 24.257055,13.936025 25.009454,13.850304 C 25.566989,13.78736 26.132218,13.784869 26.68941,13.853 C 27.370616,13.936076 28.038876,14.1331 28.651061,14.444169 C 29.234187,14.738713 29.763805,15.133785 30.227501,15.592847 C 30.71713,16.071517 31.133805,16.628212 31.43194,17.245662 C 31.72359,17.845683 31.900078,18.499232 31.966469,19.162398 C 32.015612,19.651861 32.009325,20.146358 31.957604,20.635336 C 31.87942,21.366187 31.681848,22.085849 31.359007,22.746988 C 31.035442,23.413596 30.587165,24.016718 30.05765,24.533997 C 29.556384,25.025893 28.976917,25.441521 28.337983,25.735555 C 27.720431,26.021669 27.051328,26.191322 26.37398,26.251271 C 25.903549,26.293349 25.429509,26.284259 24.959351,26.243233 C 24.102464,26.166828 23.257145,25.955227 22.468451,25.610991 C 21.610632,25.238621 20.823501,24.713547 20.126065,24.092603 C 19.921044,23.910369 19.723336,23.719951 19.532716,23.522724 C 19.111849,24.625692 18.665237,25.719844 18.15714,26.78585 C 17.84041,27.446486 17.501468,28.098075 17.106811,28.715988 C 16.865287,29.090875 16.603984,29.455843 16.294167,29.777863 C 15.948645,30.137532 15.526096,30.41728 15.074124,30.625053 C 14.500091,30.889095 13.882001,31.04536 13.259102,31.141043 C 12.618324,31.23883 11.969255,31.271466 11.321566,31.268963 C 10.598261,31.268963 9.8749572,31.268963 9.1516529,31.268963 C 9.1516529,30.577925 9.1516529,29.886889 9.1516529,29.195851 C 9.5284197,29.195746 9.9051877,29.19607 10.281954,29.195672 C 10.980075,29.19151 11.680746,29.144116 12.365896,29.004835 C 12.879212,28.899185 13.386415,28.74055 13.846177,28.485392 C 14.180386,28.300097 14.486474,28.05945 14.72868,27.762697 C 14.968529,27.47017 15.16686,27.146387 15.352208,26.817448 C 15.684685,26.220728 15.969361,25.598797 16.237908,24.971169 C 16.699629,23.884728 17.107513,22.776274 17.494965,21.661481 C 17.55811,21.479352 17.6206,21.296995 17.682502,21.114438 C 17.382206,20.585994 17.100435,20.045735 16.86745,19.483927 C 16.727448,19.144906 16.606316,18.796977 16.527137,18.438408 C 16.432961,18.018629 16.362605,17.593961 16.294954,17.169246 C 16.145162,16.211102 16.022318,15.249 15.903467,14.286612 C 15.693478,12.705986 15.483489,11.125361 15.2735,9.5447344 C 15.120676,8.3800153 14.944713,7.217563 14.70955,6.0663465 C 14.565594,5.3695847 14.401846,4.6757054 14.18282,3.9983092 C 14.079234,3.6808834 13.963344,3.3668355 13.820648,3.0647073 C 13.033332,3.9977121 12.370685,5.0303975 11.795467,6.1055209 C 11.130902,7.34966 10.58283,8.6531348 10.108606,9.9805945 C 9.5877855,11.427906 9.1584652,12.911413 8.8872885,14.426603 C 8.6980564,15.486575 8.5881028,16.562487 8.5928637,17.639855 C 8.5928637,18.061495 8.5928637,18.483134 8.5928637,18.904774 C 7.7650273,18.904774 6.9371922,18.904774 6.1093559,18.904774 z M 20.091505,21.41237 C 20.703989,22.091303 21.376216,22.72202 22.130867,23.241206 C 22.760276,23.67368 23.451156,24.026305 24.189875,24.228179 C 24.851816,24.410406 25.550429,24.464641 26.231407,24.372586 C 26.743512,24.303563 27.244352,24.142449 27.694737,23.888087 C 28.073999,23.675374 28.415659,23.398945 28.713517,23.082857 C 29.083487,22.696232 29.381705,22.240577 29.582507,21.744352 C 29.806756,21.194504 29.911894,20.600767 29.924676,20.00848 C 29.937553,19.515156 29.879046,19.017921 29.729455,18.546756 C 29.576709,18.060558 29.326841,17.606395 29.00534,17.21141 C 28.651443,16.776513 28.219489,16.400537 27.722727,16.137364 C 27.285175,15.903946 26.800563,15.762402 26.307602,15.712528 C 25.638529,15.644889 24.952576,15.725146 24.322887,15.963896 C 23.731781,16.185781 23.196936,16.54142 22.73538,16.969542 C 22.170197,17.493376 21.707176,18.118263 21.31256,18.7777 C 20.815983,19.610837 20.424371,20.502687 20.091505,21.41237 z "
                style="fill: currentColor"
            />
        
</svg>
