<svg xmlns="http://www.w3.org/2000/svg" viewBox="0 0 32 32" width="100" height="100" fill="none">

            <path
                d="M 13.288122,16.493593 C 13.288341,18.063699 13.05468,19.628362 12.659925,21.146156 C 12.357704,22.307244 11.963213,23.443409 11.50037,24.549958 C 10.686188,26.478493 9.6661757,28.322053 8.4407197,30.020076 C 7.9470957,30.70465 7.4207807,31.365649 6.8640927,32 C 5.755454,32 4.6468153,32 3.5381766,32 C 5.0522034,30.404055 6.4097927,28.650872 7.4981507,26.736335 C 8.4325047,25.095226 9.1630007,23.334896 9.6285777,21.503579 C 10.046238,19.868636 10.251675,18.180711 10.250756,16.493593 C 8.0891637,16.493593 5.9275707,16.493593 3.7659791,16.493593 C 3.7659791,15.734219 3.7659791,14.974846 3.7659791,14.215472 C 5.9275707,14.215472 8.0891637,14.215472 10.250756,14.215472 C 10.155962,12.497991 9.8124867,10.79647 9.2546487,9.170043 C 8.6105467,7.2864 7.6862107,5.505691 6.5830667,3.851254 C 5.6743031,2.487908 4.645125,1.2070989 3.5381766,3e-07 C 4.586068,3e-07 5.6339593,3e-07 6.6818507,3e-07 C 8.1599397,1.5758476 9.4625857,3.32165 10.504335,5.216231 C 11.460044,6.950248 12.193056,8.806919 12.676728,10.726985 C 12.966171,11.872645 13.168364,13.040006 13.288122,14.215472 C 15.383905,14.215472 17.479688,14.215472 19.57547,14.215472 C 19.786882,12.187758 20.245884,10.18413 20.963249,8.275041 C 21.670429,6.386772 22.628655,4.594849 23.786533,2.944916 C 24.513415,1.9078229 25.317588,0.9255687 26.181742,3e-07 C 27.229633,3e-07 28.277525,3e-07 29.325416,3e-07 C 27.854618,1.6040887 26.518849,3.340047 25.424921,5.224016 C 24.470458,6.86703 23.704995,8.625498 23.215175,10.463364 C 22.887547,11.689232 22.683281,12.948392 22.612837,14.215472 C 24.774428,14.215472 26.936022,14.215472 29.097614,14.215472 C 29.097614,14.974846 29.097614,15.734219 29.097614,16.493593 C 26.936022,16.493593 24.774428,16.493593 22.612837,16.493593 C 22.611591,18.310013 22.850544,20.127347 23.334454,21.878524 C 23.837322,23.707293 24.604369,25.459494 25.570694,27.090105 C 26.622727,28.867765 27.905083,30.502723 29.325416,32 C 28.221839,32 27.118264,32 26.014687,32 C 24.694435,30.508377 23.549197,28.863315 22.597313,27.113821 C 22.10428,26.207798 21.660533,25.27491 21.268265,24.320935 C 20.623634,22.737739 20.115613,21.093729 19.828922,19.406721 C 19.665585,18.444768 19.575402,17.469603 19.57547,16.493593 C 17.479688,16.493593 15.383905,16.493593 13.288122,16.493593 z "
                style="fill: currentColor"
            />
        
</svg>
