<svg xmlns="http://www.w3.org/2000/svg" viewBox="0 0 32 32" width="100" height="100" fill="none">

            <path
                d="M 11.211125,11.960043 C 9.9856197,11.482085 8.8273507,10.757263 7.9994164,9.72266 C 6.9540584,8.4489508 6.2119524,6.9696097 5.4068199,5.5422515 C 4.9153336,4.6435931 4.3588452,3.7604128 3.6002686,3.0601036 C 3.0877371,2.5830399 2.4699433,2.1977129 1.7791321,2.0462178 C 1.4514867,1.9663451 1.1127698,1.9634065 0.77756648,1.9693203 C 0.67750138,1.9824803 0.59833508,1.9747595 0.63369088,1.8528333 C 0.63369088,1.2703618 0.63369088,0.68789023 0.63369088,0.10540044 C 1.17693,0.11178884 1.7210292,0.090159641 2.2636095,0.12169984 C 3.3493739,0.21208594 4.3665129,0.71587121 5.1917935,1.4097555 C 6.2647844,2.301332 7.0888754,3.4494827 7.7911614,4.6436479 C 8.2913034,5.504688 8.7721757,6.3767525 9.2743127,7.2366062 C 9.7588087,8.0463569 10.307648,8.8247865 10.971539,9.4989948 C 11.558717,10.094699 12.26157,10.586967 13.05294,10.871139 C 14.150966,11.276362 15.339046,11.359556 16.500244,11.314637 C 17.543204,11.262672 18.602068,11.069616 19.529792,10.571745 C 20.401335,10.114667 21.103804,9.3970914 21.70004,8.6267659 C 22.385087,7.7411946 22.90697,6.7477331 23.4727,5.7859031 C 23.973299,4.9321458 24.445516,4.0586028 25.032291,3.2589091 C 25.711866,2.3247863 26.516632,1.4558247 27.507766,0.84599277 C 28.266471,0.38323894 29.146377,0.096548041 30.040832,0.10665984 C 30.450426,0.10206024 30.860074,0.10793754 31.269667,0.10540044 C 31.269667,0.72671315 31.269667,1.3480258 31.269667,1.9693203 C 30.83654,1.9661078 30.395361,1.9583688 29.976068,2.084055 C 29.119934,2.3186718 28.400483,2.8925646 27.826939,3.5517693 C 27.236028,4.2235865 26.788261,5.0028374 26.361666,5.7843699 C 25.62311,7.1010819 24.926168,8.45439 23.974946,9.6357237 C 23.593554,10.115288 23.152118,10.547816 22.652506,10.904341 C 22.04981,11.341267 21.383375,11.685326 20.692216,11.960043 C 22.348981,12.865254 23.828308,14.122646 24.896339,15.684031 C 25.796504,16.986087 26.394314,18.499158 26.592943,20.07009 C 26.786632,21.552151 26.679448,23.07778 26.246394,24.510194 C 25.794125,25.991032 24.976384,27.349505 23.925975,28.485007 C 22.665646,29.86615 21.085998,30.984732 19.301242,31.576932 C 17.552208,32.157414 15.652802,32.246614 13.846086,31.902756 C 12.220193,31.584489 10.685765,30.84585 9.4008767,29.805625 C 8.3001424,28.923303 7.3354694,27.861815 6.6067774,26.652956 C 5.8415027,25.375231 5.3706589,23.923415 5.2478468,22.439712 C 5.0823588,20.5966 5.3939915,18.70145 6.2162704,17.037212 C 7.1166364,15.191362 8.5643224,13.634995 10.283546,12.517563 C 10.585297,12.319744 10.895008,12.134062 11.211125,11.960043 z M 15.95792,29.605305 C 17.469674,29.613938 18.995703,29.228064 20.277974,28.41813 C 21.282431,27.789462 22.153627,26.952533 22.837942,25.987765 C 23.596408,24.901526 24.056583,23.612795 24.160144,22.293218 C 24.299755,20.693301 24.009222,19.036802 23.213204,17.630781 C 22.635286,16.59793 21.823712,15.701955 20.882354,14.986223 C 19.957869,14.285713 18.874337,13.796566 17.734807,13.572919 C 16.560579,13.339306 15.339559,13.345548 14.165441,13.576077 C 12.882017,13.836484 11.670842,14.428009 10.671234,15.27118 C 9.4374767,16.294904 8.4690884,17.663964 8.0293554,19.211788 C 7.6531594,20.523663 7.6133384,21.926782 7.8842354,23.262549 C 8.1509414,24.532261 8.7612877,25.723725 9.6208437,26.695886 C 10.502288,27.706012 11.597404,28.550388 12.854073,29.039808 C 13.83807,29.433185 14.900337,29.606601 15.95792,29.605305 z"
                style="fill: currentColor"
            />
        
</svg>
