<svg xmlns="http://www.w3.org/2000/svg" viewBox="0 0 24 24" width="100" height="100" fill="none">

            <g transform="translate(1,3)">
                <g transform="scale(.9)">
                    <path
                        d="M 19.836828,1.2268585 C 17.424422,3.6258776 15.012008,6.0249047 12.599594,8.4239317 M 13.586131,1.3032853 C 15.641622,1.3032853 17.697105,1.3032853 19.752595,1.3032853 C 19.752595,3.3473686 19.752603,5.3914517 19.752603,7.4355357"
                        style="stroke: #e5e7eb; stroke-width: 2px; fill: none"
                    />
                    <path
                        d="M 15.208835,13.137711 C 15.245787,15.888309 13.497523,18.54346 10.969043,19.61773 C 8.4584175,20.749036 5.3155428,20.21641 3.3236306,18.312843 C 1.3294789,16.502686 0.55466127,13.504678 1.4133615,10.953302 C 2.2485721,8.2833452 4.8005043,6.2660075 7.595218,6.0884266 C 10.287032,5.8467984 13.022348,7.3231048 14.31386,9.6938081 C 14.901163,10.739967 15.211082,11.938196 15.208835,13.137711 z"
                        style="stroke: #e5e7eb; stroke-width: 2px; fill: none"
                    />
                </g>
            </g>
        
</svg>
