<svg xmlns="http://www.w3.org/2000/svg" viewBox="0 0 24 24" width="100" height="100" fill="none">

            <g transform="translate(3,1)">
                <path
                    d="M 12.417908,11.097507 C 12.460818,13.604916 10.668217,15.996656 8.2566805,16.676639 C 6.1180375,17.322522 3.6408675,16.611869 2.1990915,14.897025 C 0.70251351,13.185894 0.34705551,10.574149 1.3787835,8.540637 C 2.3309065,6.5778196 4.4448925,5.2390515 6.6344385,5.2801812 C 8.7436485,5.2808184 10.79721,6.5184897 11.755641,8.4014229 C 12.188709,9.2293563 12.421926,10.162568 12.417908,11.097507 z M 11.537549,0.79477756 C 11.368011,2.9531636 9.5928105,4.849394 7.4528455,5.171127 C 5.4934035,5.5058467 3.3634505,4.5494686 2.3958135,2.7946586 C 2.0448155,2.1818746 1.8275755,1.4930966 1.7626845,0.78993756 M 6.6039625,16.890518 C 6.6039625,18.997031 6.6039625,21.103545 6.6039625,23.210058 M 3.9708215,20.576916 C 5.7262475,20.576916 7.4816785,20.576916 9.2371045,20.576916"
                    style="stroke: #e5e7eb; stroke-width: 2px; fill: none"
                />
            </g>
        
</svg>
