<svg xmlns="http://www.w3.org/2000/svg" viewBox="0 0 24 24" width="100" height="100" fill="none">

            <g transform="translate(2,4)">
                <g transform="scale(.8)">
                    <path
                        d="M 4.6772066,16.097423 C 3.2042426,16.097423 1.7312776,16.097423 0.25830661,16.097423 C 0.32185061,15.894879 0.11995661,15.485096 0.37976361,15.435787 C 1.1809726,15.235485 1.9821826,15.035182 2.7833926,14.83488 C 2.7833926,10.626401 2.7833926,6.417929 2.7833926,2.2094502 C 1.9416996,1.9990285 1.1000056,1.7886004 0.25830661,1.5781787 C 0.32380761,1.3915243 0.11570261,0.93126432 0.38350061,0.94690722 C 1.8147376,0.94690722 3.2459696,0.94690722 4.6772066,0.94690722 C 4.6772066,5.9970792 4.6772066,11.047251 4.6772066,16.097423 z "
                        style="stroke: #e5e7eb; stroke-width: 1px; fill: #e5e7eb"
                    />
                    <path
                        d="M 18.56518,16.097423 C 20.038151,16.097423 21.511116,16.097423 22.984081,16.097423 C 22.920543,15.894879 23.12243,15.485096 22.862631,15.435787 C 22.061421,15.235485 21.260211,15.035182 20.458995,14.83488 C 20.458995,10.626401 20.458995,6.417929 20.458995,2.2094502 C 21.300694,1.9990285 22.142388,1.7886004 22.984081,1.5781787 C 22.918587,1.3915243 23.126691,0.93126432 22.858893,0.94690722 C 21.427656,0.94690722 19.996418,0.94690722 18.56518,0.94690722 C 18.56518,5.9970792 18.56518,11.047251 18.56518,16.097423 z "
                        style="stroke: #e5e7eb; stroke-width: 1px; fill: #e5e7eb"
                    />
                    <path
                        d="M 4.0459356,8.5221652 C 9.0961076,8.5221652 14.14628,8.5221652 19.196452,8.5221652 M 11.621194,0.94690722 C 11.621194,6.417929 11.621194,11.888944 11.621194,17.359966 M 14.146242,20.516342 C 14.227954,22.201105 12.275665,23.550302 10.725678,22.883023 C 9.1395766,22.348696 8.5520466,20.089685 9.7034976,18.860871 C 10.724075,17.608182 12.959464,17.746481 13.760731,19.174808 C 14.011339,19.5741 14.14818,20.044644 14.146242,20.516342 z "
                        style="stroke: #e5e7eb; stroke-width: 2px; fill: none"
                    />
                </g>
            </g>
        
</svg>
