<svg xmlns="http://www.w3.org/2000/svg" viewBox="0 0 24 24" width="100" height="100" fill="none">

            <g transform="translate(0,2)">
                <g transform="scale(.9)">
                    <path
                        d="M 18.400703,7.3667483 C 18.42396,9.6655329 17.170102,11.914579 15.218972,13.113728 C 13.162459,14.427253 10.389855,14.476772 8.2871663,13.239709 C 6.2735851,12.100524 4.933633,9.8640323 4.8979915,7.5414804 C 4.8173617,5.2678592 5.9855196,3.0090001 7.8728807,1.7530471 C 9.8803915,0.36509546 12.648906,0.21657146 14.794849,1.3752831 C 16.869772,2.4514633 18.296241,4.6731453 18.391918,7.0183723 C 18.397781,7.1343963 18.400703,7.2505723 18.400703,7.3667483 z M 11.648289,14.136689 C 11.648289,17.008764 11.648289,19.88084 11.648289,22.752915 M 7.9651333,19.060243 C 10.42057,19.060243 12.876008,19.060243 15.331444,19.060243"
                        style="stroke: #e5e7eb; stroke-width: 2px; fill: none"
                    />
                </g>
            </g>
        
</svg>
